<svg width="94" height="100" viewBox="0 0 94 100" fill="none" xmlns="http://www.w3.org/2000/svg">
<g clip-path="url(#clip0_2001_375)">
<path fill-rule="evenodd" clip-rule="evenodd" d="M77.0323 0.647163C80.0103 2.05056 81.2867 5.60232 79.8833 8.58025L49.3343 73.4038C48.507 75.1591 46.8771 76.4019 44.9654 76.735C43.0537 77.0681 41.0995 76.4498 39.7273 75.0776L18.8646 54.2149C16.5368 51.887 16.5368 48.1129 18.8646 45.7851C21.1924 43.4572 24.9666 43.4572 27.2944 45.7851L42.1636 60.6542L69.0992 3.49812C70.5026 0.520185 74.0544 -0.75623 77.0323 0.647163Z" fill="#0760FB"/>
<path d="M5.19715 19.451C2.72829 19.451 0.726562 21.4526 0.726562 23.9216V95.451C0.726562 97.9201 2.72829 99.9216 5.19715 99.9216H88.6481C91.117 99.9216 93.1187 97.9201 93.1187 95.451V23.9216C93.1187 21.4526 91.117 19.451 88.6481 19.451H83.4324C80.9636 19.451 78.9619 21.4526 78.9619 23.9216C78.9619 26.3907 80.9636 28.3922 83.4324 28.3922H84.1775V90.9804H9.66774V28.3922H32.0207C34.4895 28.3922 36.4913 26.3907 36.4913 23.9216C36.4913 21.4526 34.4895 19.451 32.0207 19.451H5.19715Z" fill="#979797"/>
<path d="M44.3148 28.3922C46.7837 28.3922 48.7854 26.3907 48.7854 23.9216C48.7854 21.4526 46.7837 19.451 44.3148 19.451C41.8459 19.451 39.8442 21.4526 39.8442 23.9216C39.8442 26.3907 41.8459 28.3922 44.3148 28.3922Z" fill="#979797"/>
</g>
<defs>
<clipPath id="clip0_2001_375">
<rect width="94" height="100" fill="white"/>
</clipPath>
</defs>
</svg>
